<svg id="vuesax_bold_apple" data-name="vuesax/bold/apple" xmlns="http://www.w3.org/2000/svg" width="20" height="20" viewBox="0 0 20 20">
  <g id="apple">
    <path id="BG_135" data-name="BG 135" d="M0,0H20V20H0Z" fill="none" opacity="0.58"/>
    <g id="Group" transform="translate(3.018 5.833)">
      <path id="Vector" d="M12.9,10.133a11.446,11.446,0,0,0,1.05-1.975,3.6,3.6,0,0,1-.475-6.5A4.122,4.122,0,0,0,10.357,0,4.682,4.682,0,0,0,8.516.4,3.4,3.4,0,0,1,7.257.7,4.131,4.131,0,0,1,5.849.375,4.815,4.815,0,0,0,4.141,0,4.238,4.238,0,0,0,.732,2.058c-1.183,1.833-.975,5.267.933,8.2.683,1.05,1.6,2.225,2.792,2.242a2.558,2.558,0,0,0,1.183-.3,3.519,3.519,0,0,1,1.625-.383,3.38,3.38,0,0,1,1.617.383,2.453,2.453,0,0,0,1.158.3C11.249,12.483,12.216,11.183,12.9,10.133Z" transform="translate(0)"/>
    </g>
    <path id="Vector-2" data-name="Vector" d="M3.093,0A3.352,3.352,0,0,1,2.36,2.458,2.982,2.982,0,0,1,.035,3.642a3.1,3.1,0,0,1,.75-2.4A3.622,3.622,0,0,1,3.093,0Z" transform="translate(10.107 1.667)"/>
    <path id="Vector-3" data-name="Vector" d="M0,0H20V20H0Z" fill="none" opacity="0"/>
  </g>
</svg>
