<svg width="20" height="15" viewBox="0 0 20 15" fill="none" xmlns="http://www.w3.org/2000/svg">
<g clip-path="url(#clip0_254_9014)">
<path d="M0.0643562 7.18232C0.119485 7.35758 0.208584 7.51963 0.326309 7.65873L5.65709 14.4888C5.77453 14.6384 5.92132 14.761 6.08795 14.8487C6.25459 14.9364 6.43734 14.9872 6.62437 14.9979C6.81139 15.0086 6.99852 14.9788 7.17362 14.9106C7.34871 14.8424 7.50787 14.7372 7.64078 14.6019L19.6331 2.30911C19.8727 2.05061 20.0043 1.70639 19.9999 1.34983C19.9955 0.99328 19.8553 0.65261 19.6093 0.400468C19.3633 0.148325 19.031 0.00466213 18.6832 0.000111483C18.3353 -0.00443917 17.9995 0.130482 17.7473 0.376108L6.8075 11.5901L2.40794 5.95201C2.30142 5.80373 2.16677 5.67903 2.01208 5.5854C1.85739 5.49176 1.68584 5.43112 1.50772 5.40712C1.32961 5.38312 1.1486 5.39625 0.97555 5.44571C0.802505 5.49518 0.640991 5.57997 0.500699 5.69499C0.360407 5.81002 0.244228 5.95291 0.159133 6.11509C0.0740371 6.27727 0.0217788 6.4554 0.00549266 6.63879C-0.0107934 6.82218 0.00922744 7.00705 0.0643562 7.18232Z" fill="#222222"/>
</g>
</svg>
