<svg width="15" height="15" viewBox="0 0 15 15" fill="none" xmlns="http://www.w3.org/2000/svg">
<path d="M12.439 0.857843C12.9096 0.387303 13.6725 0.387303 14.143 0.857843C14.6135 1.32838 14.6135 2.09128 14.143 2.56182L2.55597 14.1489C2.08543 14.6194 1.32253 14.6194 0.851989 14.1489C0.381448 13.6783 0.381448 12.9154 0.851988 12.4449L12.439 0.857843Z" fill="#222222"/>
<path d="M12.439 14.15L0.851988 2.56293C0.381448 2.09239 0.381448 1.32949 0.851989 0.858949C1.32253 0.388409 2.08543 0.388409 2.55597 0.858949L14.143 12.446C14.6135 12.9165 14.6135 13.6794 14.143 14.15C13.6725 14.6205 12.9096 14.6205 12.439 14.15Z" fill="#222222"/>
</svg>
