<svg width="20" height="20" viewBox="0 0 20 20" fill="none" xmlns="http://www.w3.org/2000/svg">
<path d="M17.5 4.98405C14.725 4.70905 11.9333 4.56738 9.15 4.56738C7.5 4.56738 5.85 4.65072 4.2 4.81738L2.5 4.98405" stroke="#222222" stroke-width="1.5" stroke-linecap="round" stroke-linejoin="round"/>
<path d="M7.08301 4.14199L7.26634 3.05033C7.39967 2.25866 7.49967 1.66699 8.90801 1.66699H11.0913C12.4997 1.66699 12.608 2.29199 12.733 3.05866L12.9163 4.14199" stroke="#222222" stroke-width="1.5" stroke-linecap="round" stroke-linejoin="round"/>
<path d="M15.7082 7.61719L15.1665 16.0089C15.0748 17.3172 14.9998 18.3339 12.6748 18.3339H7.32484C4.99984 18.3339 4.92484 17.3172 4.83317 16.0089L4.2915 7.61719" stroke="#222222" stroke-width="1.5" stroke-linecap="round" stroke-linejoin="round"/>
<path d="M8.6084 13.75H11.3834" stroke="#222222" stroke-width="1.5" stroke-linecap="round" stroke-linejoin="round"/>
<path d="M7.91699 10.417H12.0837" stroke="#222222" stroke-width="1.5" stroke-linecap="round" stroke-linejoin="round"/>
</svg>
