<svg width="18" height="18" viewBox="0 0 18 18" fill="none" xmlns="http://www.w3.org/2000/svg">
<path d="M7.10244 11.46C6.95994 11.46 6.81744 11.4075 6.70494 11.295C6.08994 10.68 5.75244 9.8625 5.75244 9C5.75244 7.2075 7.20744 5.7525 8.99994 5.7525C9.86244 5.7525 10.6799 6.09 11.2949 6.705C11.3999 6.81 11.4599 6.9525 11.4599 7.1025C11.4599 7.2525 11.3999 7.395 11.2949 7.5L7.49994 11.295C7.38744 11.4075 7.24494 11.46 7.10244 11.46ZM8.99994 6.8775C7.82994 6.8775 6.87744 7.83 6.87744 9C6.87744 9.375 6.97494 9.735 7.15494 10.05L10.0499 7.155C9.73494 6.975 9.37494 6.8775 8.99994 6.8775Z" fill="#222222"/>
<path d="M4.19988 13.8825C4.07238 13.8825 3.93738 13.8375 3.83238 13.7475C3.02988 13.065 2.30988 12.225 1.69488 11.25C0.899883 10.0125 0.899883 7.99499 1.69488 6.74999C3.52488 3.88499 6.18738 2.23499 8.99988 2.23499C10.6499 2.23499 12.2774 2.80499 13.7024 3.87749C13.9499 4.06499 14.0024 4.41749 13.8149 4.66499C13.6274 4.91249 13.2749 4.96499 13.0274 4.77749C11.7974 3.84749 10.4024 3.35999 8.99988 3.35999C6.57738 3.35999 4.25988 4.81499 2.63988 7.35749C2.07738 8.23499 2.07738 9.76499 2.63988 10.6425C3.20238 11.52 3.84738 12.2775 4.55988 12.8925C4.79238 13.095 4.82238 13.4475 4.61988 13.6875C4.51488 13.815 4.35738 13.8825 4.19988 13.8825Z" fill="#222222"/>
<path d="M8.99993 15.765C8.00242 15.765 7.02742 15.5625 6.08992 15.165C5.80492 15.045 5.66992 14.715 5.78992 14.43C5.90992 14.145 6.23992 14.01 6.52492 14.13C7.31992 14.4675 8.15242 14.64 8.99242 14.64C11.4149 14.64 13.7324 13.185 15.3524 10.6425C15.9149 9.765 15.9149 8.235 15.3524 7.3575C15.1199 6.99 14.8649 6.6375 14.5949 6.3075C14.3999 6.0675 14.4374 5.715 14.6774 5.5125C14.9174 5.3175 15.2699 5.3475 15.4724 5.595C15.7649 5.955 16.0499 6.345 16.3049 6.75C17.0999 7.9875 17.0999 10.005 16.3049 11.25C14.4749 14.115 11.8124 15.765 8.99993 15.765Z" fill="#222222"/>
<path d="M9.51744 12.2025C9.25494 12.2025 9.01494 12.015 8.96244 11.745C8.90244 11.4375 9.10494 11.145 9.41244 11.0925C10.2374 10.9425 10.9274 10.2525 11.0774 9.42751C11.1374 9.12001 11.4299 8.92501 11.7374 8.97751C12.0449 9.03751 12.2474 9.33002 12.1874 9.63752C11.9474 10.935 10.9124 11.9625 9.62244 12.2025C9.58494 12.195 9.55494 12.2025 9.51744 12.2025Z" fill="#222222"/>
<path d="M1.50008 17.0625C1.35758 17.0625 1.21508 17.01 1.10258 16.8975C0.885078 16.68 0.885078 16.32 1.10258 16.1025L6.70508 10.5C6.92258 10.2825 7.28258 10.2825 7.50008 10.5C7.71758 10.7175 7.71758 11.0775 7.50008 11.295L1.89758 16.8975C1.78508 17.01 1.64258 17.0625 1.50008 17.0625Z" fill="#222222"/>
<path d="M10.8975 7.66499C10.755 7.66499 10.6125 7.61249 10.5 7.49999C10.2825 7.28249 10.2825 6.92249 10.5 6.70499L16.1025 1.10249C16.32 0.884987 16.68 0.884987 16.8975 1.10249C17.115 1.31999 17.115 1.67999 16.8975 1.89749L11.295 7.49999C11.1825 7.61249 11.04 7.66499 10.8975 7.66499Z" fill="#222222"/>
</svg>
