<svg id="vuesax_bold_facebook" data-name="vuesax/bold/facebook" xmlns="http://www.w3.org/2000/svg" width="20" height="20" viewBox="0 0 20 20">
  <g id="facebook">
    <path id="BG_111" data-name="BG 111" d="M0,0H20V20H0Z" fill="none" opacity="0.58"/>
    <path id="Vector" d="M16.667,11.825a4.447,4.447,0,0,1-4.842,4.842h-.992A.836.836,0,0,1,10,15.833V11.025a.416.416,0,0,1,.408-.417l1.467-.025a.266.266,0,0,0,.242-.208l.292-1.592a.252.252,0,0,0-.25-.292l-1.775.025a.424.424,0,0,1-.425-.408L9.925,6.067a.251.251,0,0,1,.25-.25l2-.033a.246.246,0,0,0,.25-.25l-.033-2a.246.246,0,0,0-.25-.25l-2.25.033A2.5,2.5,0,0,0,7.433,5.858L7.475,8.15a.413.413,0,0,1-.408.425l-1,.017a.246.246,0,0,0-.25.25l.025,1.583a.246.246,0,0,0,.25.25l1-.017a.424.424,0,0,1,.425.408l.075,4.75a.834.834,0,0,1-.833.85H4.842A4.45,4.45,0,0,1,0,11.817V4.842A4.447,4.447,0,0,1,4.842,0h6.983a4.447,4.447,0,0,1,4.842,4.842v6.983Z" transform="translate(1.667 1.667)" fill="#0094ef"/>
    <path id="Vector-2" data-name="Vector" d="M0,0H20V20H0Z" fill="none" opacity="0"/>
  </g>
</svg>
