<svg id="google" xmlns="http://www.w3.org/2000/svg" width="16" height="16" viewBox="0 0 16 16">
  <path id="Path_43909" data-name="Path 43909" d="M138.387,108.4a6.724,6.724,0,0,0-.172-1.636H130.55v2.969h4.5a3.9,3.9,0,0,1-1.669,2.6l-.015.1,2.423,1.84.168.016a7.744,7.744,0,0,0,2.431-5.884" transform="translate(-122.387 -100.219)" fill="#4285f4"/>
  <path id="Path_43910" data-name="Path 43910" d="M21.218,162.788a7.874,7.874,0,0,0,5.406-1.938l-2.576-1.956a5.048,5.048,0,0,1-7.474-2.524l-.1.008-2.52,1.911-.033.09a8.176,8.176,0,0,0,7.293,4.409" transform="translate(-13.054 -146.788)" fill="#34a853"/>
  <path id="Path_43911" data-name="Path 43911" d="M3.519,76.524a4.836,4.836,0,0,1-.272-1.582A5.081,5.081,0,0,1,3.51,73.36l0-.106L.954,71.312l-.083.039a7.841,7.841,0,0,0,0,7.182l2.649-2.009" transform="translate(0 -66.942)" fill="#fbbc05"/>
  <path id="Path_43912" data-name="Path 43912" d="M21.218,3.093a4.573,4.573,0,0,1,3.156,1.191l2.3-2.2A7.931,7.931,0,0,0,21.218,0a8.176,8.176,0,0,0-7.293,4.409l2.639,2.009a4.925,4.925,0,0,1,4.653-3.324" transform="translate(-13.054)" fill="#eb4335"/>
</svg>
