<svg width="220" height="50" viewBox="0 0 220 50" fill="none" xmlns="http://www.w3.org/2000/svg">
<path d="M60.9632 21.3017V21.2426C60.9632 14.5158 66.2307 8.85114 73.1556 8.85114C77.1217 8.85114 79.7846 10.3853 81.9158 12.2735C82.2116 12.5096 82.4481 12.9816 82.4481 13.5127C82.4481 14.4568 81.6788 15.2239 80.732 15.2239C80.2586 15.2239 79.844 15.0469 79.607 14.8109C77.8909 13.2767 75.9378 11.9785 73.0967 11.9785C68.2432 11.9785 64.5735 16.05 64.5735 21.1836V21.2426C64.5735 26.3763 68.3614 30.5068 73.3332 30.5068C76.056 30.5068 78.2461 29.2677 79.9622 27.6155C80.1992 27.3794 80.495 27.1434 80.9684 27.1434C81.8564 27.1434 82.5668 27.9105 82.5668 28.7366C82.5668 29.1497 82.3892 29.5627 82.0929 29.8577C79.844 32.1 77.1216 33.6932 73.0967 33.6932C66.2307 33.6342 60.9632 27.9695 60.9632 21.3017Z" fill="black"/>
<path d="M87.7156 10.9164C87.7156 9.97223 88.4854 9.14613 89.4917 9.14613C90.4979 9.14613 91.2671 9.91323 91.2671 10.9164V13.3357C92.8062 10.9754 94.9368 8.85114 98.9612 8.85114C102.809 8.85114 105.294 10.9164 106.596 13.5717C108.313 10.9754 110.858 8.85114 115.001 8.85114C120.505 8.85114 123.879 12.5096 123.879 18.4103V31.569C123.879 32.5721 123.11 33.3392 122.104 33.3392C121.098 33.3392 120.328 32.5721 120.328 31.569V19.2364C120.328 14.6338 118.02 12.0375 114.173 12.0375C110.562 12.0375 107.603 14.6929 107.603 19.4135V31.569C107.603 32.5721 106.833 33.3392 105.827 33.3392C104.88 33.3392 104.052 32.5721 104.052 31.569V19.1774C104.052 14.6929 101.684 12.0965 97.8961 12.0965C94.1082 12.0965 91.2671 15.2239 91.2671 19.5905V31.569C91.2671 32.5721 90.5567 33.3392 89.4917 33.3392C88.4854 33.3392 87.7156 32.5721 87.7156 31.569V10.9164Z" fill="black"/>
<path d="M128.733 26.1993V26.0813C128.733 21.0656 132.876 18.4103 138.913 18.4103C141.932 18.4103 144.122 18.8233 146.252 19.4134V18.5873C146.252 14.3388 143.648 12.0965 139.15 12.0965C136.723 12.0965 134.711 12.6276 132.994 13.4537C132.758 13.5717 132.521 13.5717 132.343 13.5717C131.515 13.5717 130.805 12.8636 130.805 12.0375C130.805 11.3294 131.337 10.7393 131.752 10.5623C134.119 9.55916 136.486 8.96912 139.564 8.96912C142.938 8.96912 145.483 9.85421 147.259 11.5655C148.857 13.1587 149.686 15.4599 149.686 18.5283V31.51C149.686 32.513 148.975 33.2801 147.969 33.2801C146.963 33.2801 146.252 32.572 146.252 31.6279V29.5037C144.595 31.6869 141.813 33.5752 137.611 33.5752C133.172 33.5752 128.733 31.0969 128.733 26.1993ZM146.312 24.37V22.0688C144.536 21.5377 142.228 21.0656 139.327 21.0656C134.829 21.0656 132.343 23.0129 132.343 25.9633V26.0813C132.343 29.0907 135.125 30.8019 138.321 30.8019C142.701 30.8019 146.312 28.1465 146.312 24.37Z" fill="black"/>
<path d="M156.314 10.9164C156.314 9.97229 157.084 9.14619 158.089 9.14619C159.096 9.14619 159.866 9.91323 159.866 10.9164V15.3419C161.641 11.3884 165.074 9.02814 168.092 9.02814C169.158 9.02814 169.868 9.79523 169.868 10.7984C169.868 11.7425 169.217 12.4506 168.27 12.5686C163.653 13.0997 159.866 16.5811 159.866 23.4259V31.51C159.866 32.4541 159.155 33.2802 158.089 33.2802C157.084 33.2802 156.314 32.5131 156.314 31.51V10.9164Z" fill="black"/>
<path d="M173.656 1.88823C173.656 0.767098 174.603 0 175.728 0C176.911 0 177.858 0.708088 177.858 1.88823V2.47831C177.858 3.59945 176.911 4.36655 175.728 4.36655C174.544 4.36655 173.656 3.59945 173.656 2.47831V1.88823Z" fill="black"/>
<path d="M174.012 10.9164C174.012 9.97228 174.781 9.14618 175.787 9.14618C176.793 9.14618 177.562 9.91322 177.562 10.9164V31.569C177.562 32.5721 176.853 33.3392 175.787 33.3392C174.781 33.3392 174.012 32.5721 174.012 31.569V10.9164Z" fill="black"/>
<path d="M182.864 30.5658L190.676 21.0066L183.337 12.0375C182.982 11.6244 182.804 11.2114 182.804 10.7393C182.804 9.7362 183.515 9.0871 184.461 9.0871C185.172 9.0871 185.645 9.38215 186.059 9.91319L192.866 18.5873L199.673 9.97219C200.087 9.44115 200.561 9.0871 201.212 9.0871C202.158 9.0871 202.809 9.7952 202.809 10.6803C202.809 11.1524 202.632 11.5064 202.336 11.8014L194.938 20.8296L202.691 30.2708C202.987 30.6838 203.224 31.0969 203.224 31.5689C203.224 32.513 202.514 33.2211 201.567 33.2211C200.856 33.2211 200.442 32.9261 200.028 32.395L192.807 23.2489L185.527 32.454C185.112 32.9851 184.639 33.3391 183.988 33.3391C183.041 33.3391 182.39 32.6311 182.39 31.7459C182.39 31.2739 182.508 30.8608 182.864 30.5658Z" fill="black"/>
<path d="M60.9632 46.984V41.0632C60.9632 40.7431 61.204 40.423 61.6054 40.423H65.7788C66.0993 40.423 66.3402 40.6631 66.3402 40.9831C66.3402 41.3032 66.0993 41.5432 65.7788 41.5432H62.2471V43.4635H65.3774C65.6985 43.4635 65.9393 43.7035 65.9393 44.0236C65.9393 44.3436 65.6985 44.5837 65.3774 44.5837H62.2471V46.504H65.859C66.1796 46.504 66.4204 46.744 66.4204 47.064C66.4204 47.384 66.1796 47.6241 65.859 47.6241H61.6054C61.2843 47.6241 60.9632 47.384 60.9632 46.984Z" fill="black"/>
<path d="M67.7852 42.8234C67.7852 42.5033 68.026 42.1833 68.4268 42.1833C68.7479 42.1833 69.0691 42.4233 69.0691 42.8234V43.0634C69.3902 42.5833 69.9521 42.1033 70.7544 42.1033C71.9585 42.1033 72.6805 42.9034 72.6805 44.1835V47.064C72.6805 47.384 72.4396 47.7041 72.0388 47.7041C71.7177 47.7041 71.3966 47.464 71.3966 47.064V44.5836C71.3966 43.7035 70.9952 43.2234 70.193 43.2234C69.4704 43.2234 68.9888 43.7035 68.9888 44.5836V47.064C68.9888 47.384 68.7479 47.7041 68.3466 47.7041C68.026 47.7041 67.7049 47.464 67.7049 47.064V42.8234H67.7852Z" fill="black"/>
<path d="M76.2919 47.7841C75.8905 47.7841 75.6502 47.5441 75.4897 47.224L73.6438 43.0634C73.6438 42.9834 73.5635 42.9034 73.5635 42.7434C73.5635 42.4233 73.8038 42.1833 74.2052 42.1833C74.5263 42.1833 74.6869 42.3433 74.8474 42.6633L76.2116 46.2638L77.6561 42.6633C77.7364 42.4233 77.8969 42.2633 78.218 42.2633C78.5392 42.2633 78.8603 42.5033 78.8603 42.8234C78.8603 42.9034 78.78 43.0634 78.78 43.1434L76.9341 47.304C76.8539 47.5441 76.613 47.7841 76.2919 47.7841Z" fill="black"/>
<path d="M79.9836 40.743C79.9836 40.343 80.3047 40.103 80.7061 40.103C81.1075 40.103 81.4286 40.343 81.4286 40.743V40.8231C81.4286 41.2231 81.1075 41.4631 80.7061 41.4631C80.3047 41.4631 79.9836 41.2231 79.9836 40.743ZM80.1442 42.8234C80.1442 42.5033 80.385 42.1833 80.7864 42.1833C81.1075 42.1833 81.4286 42.4233 81.4286 42.8234V47.144C81.4286 47.464 81.1878 47.7841 80.7864 47.7841C80.4653 47.7841 80.1442 47.5441 80.1442 47.144V42.8234Z" fill="black"/>
<path d="M82.7928 47.064C82.6323 46.984 82.552 46.8239 82.552 46.6639C82.552 46.4239 82.7928 46.1838 83.0337 46.1838C83.1139 46.1838 83.1942 46.1838 83.2745 46.2638C83.8364 46.5839 84.3176 46.8239 84.8795 46.8239C85.4415 46.8239 85.7626 46.5839 85.7626 46.2638C85.7626 45.8638 85.2006 45.7038 84.5584 45.4638C83.7562 45.2237 82.8731 44.9037 82.8731 43.8635C82.8731 42.8234 83.7562 42.1833 84.7992 42.1833C85.3612 42.1833 86.0029 42.3433 86.4845 42.6633C86.6451 42.7434 86.8056 42.9034 86.8056 43.1434C86.8056 43.4635 86.5648 43.6235 86.324 43.6235C86.2437 43.6235 86.1634 43.6235 86.0831 43.5435C85.602 43.3034 85.2006 43.1434 84.7992 43.1434C84.3176 43.1434 84.0767 43.3835 84.0767 43.7035C84.0767 44.1035 84.6387 44.2636 85.2809 44.5036C86.0831 44.7436 86.9662 45.1437 86.9662 46.1038C86.9662 47.224 86.0831 47.7841 84.9598 47.7841C84.157 47.7841 83.4351 47.5441 82.7928 47.064Z" fill="black"/>
<path d="M88.0895 40.743C88.0895 40.343 88.4106 40.103 88.812 40.103C89.2129 40.103 89.534 40.343 89.534 40.743V40.8231C89.534 41.2231 89.2129 41.4631 88.812 41.4631C88.4106 41.4631 88.0895 41.2231 88.0895 40.743ZM88.2501 42.8234C88.2501 42.5033 88.4909 42.1833 88.8923 42.1833C89.2129 42.1833 89.534 42.4233 89.534 42.8234V47.144C89.534 47.464 89.2932 47.7841 88.8923 47.7841C88.5712 47.7841 88.2501 47.5441 88.2501 47.144V42.8234Z" fill="black"/>
<path d="M90.8185 44.9837C90.8185 43.3834 92.0221 42.1033 93.7074 42.1033C95.3932 42.1033 96.5968 43.3834 96.5968 44.9037C96.5968 46.4239 95.3932 47.7041 93.7074 47.7041C92.0221 47.7841 90.8185 46.5039 90.8185 44.9837ZM95.3129 44.9837C95.3129 44.0235 94.5904 43.2234 93.6276 43.2234C92.6643 43.2234 92.0221 44.0235 92.0221 44.9837C92.0221 45.9438 92.7446 46.7439 93.7074 46.7439C94.6707 46.6639 95.3129 45.8638 95.3129 44.9837Z" fill="black"/>
<path d="M97.8807 42.8234C97.8807 42.5033 98.1216 42.1833 98.523 42.1833C98.8441 42.1833 99.1646 42.4233 99.1646 42.8234V43.0634C99.4858 42.5833 100.048 42.1033 100.85 42.1033C102.054 42.1033 102.777 42.9034 102.777 44.1835V47.064C102.777 47.384 102.536 47.7041 102.134 47.7041C101.813 47.7041 101.492 47.464 101.492 47.064V44.5836C101.492 43.7035 101.091 43.2234 100.289 43.2234C99.566 43.2234 99.0849 43.7035 99.0849 44.5836V47.064C99.0849 47.384 98.8441 47.7041 98.4427 47.7041C98.1216 47.7041 97.8005 47.464 97.8005 47.064V42.8234H97.8807Z" fill="black"/>
<path d="M107.947 43.6677C108.313 43.6677 108.606 43.9595 108.606 44.3244V44.3973C108.606 44.7621 108.313 45.054 107.947 45.054C107.581 45.054 107.288 44.7621 107.288 44.3973V44.3244C107.288 43.8866 107.581 43.6677 107.947 43.6677Z" fill="black"/>
<path d="M113.1 40.743C113.1 40.423 113.34 40.103 113.742 40.103C114.063 40.103 114.384 40.343 114.384 40.743V46.1838H117.674C117.995 46.1838 118.236 46.4239 118.236 46.7439C118.236 47.064 117.995 47.304 117.674 47.304H113.742C113.421 47.304 113.1 47.064 113.1 46.6639V40.743Z" fill="black"/>
<path d="M121.687 47.4641C120.082 47.4641 118.878 46.3439 118.878 44.6637C118.878 43.1434 120.002 41.8632 121.527 41.8632C123.292 41.8632 124.095 43.3034 124.095 44.5036C124.095 44.8237 123.854 45.0637 123.533 45.0637H120.162C120.323 45.9438 120.885 46.4239 121.767 46.4239C122.329 46.4239 122.731 46.2638 123.052 45.9438C123.132 45.8638 123.212 45.8638 123.372 45.8638C123.613 45.8638 123.854 46.1038 123.854 46.3439C123.854 46.5039 123.774 46.6639 123.693 46.7439C123.132 47.144 122.49 47.4641 121.687 47.4641ZM122.891 44.2636C122.811 43.4635 122.329 42.8234 121.527 42.8234C120.724 42.8234 120.243 43.3835 120.082 44.2636H122.891Z" fill="black"/>
<path d="M127.465 47.4641C127.064 47.4641 126.823 47.224 126.663 46.904L124.817 42.7434C124.817 42.6634 124.737 42.5834 124.737 42.4233C124.737 42.1033 124.977 41.8632 125.379 41.8632C125.7 41.8632 125.86 42.0233 126.021 42.3433L127.385 45.9438L128.83 42.3433C128.91 42.1033 129.071 41.9432 129.392 41.9432C129.713 41.9432 130.034 42.1833 130.034 42.5033C130.034 42.5834 129.954 42.7434 129.954 42.8234L128.108 46.984C128.027 47.224 127.787 47.4641 127.465 47.4641Z" fill="black"/>
<path d="M133.485 47.4641C131.88 47.4641 130.676 46.3439 130.676 44.6637C130.676 43.1434 131.799 41.8632 133.324 41.8632C135.09 41.8632 135.893 43.3034 135.893 44.5036C135.893 44.8237 135.652 45.0637 135.331 45.0637H131.96C132.12 45.9438 132.682 46.4239 133.565 46.4239C134.126 46.4239 134.528 46.2638 134.849 45.9438C134.929 45.8638 135.009 45.8638 135.17 45.8638C135.411 45.8638 135.652 46.1038 135.652 46.3439C135.652 46.5039 135.571 46.6639 135.491 46.7439C134.929 47.144 134.367 47.4641 133.485 47.4641ZM134.688 44.2636C134.608 43.4635 134.126 42.8234 133.324 42.8234C132.521 42.8234 132.04 43.3835 131.88 44.2636H134.688Z" fill="black"/>
<path d="M137.176 42.5033C137.176 42.1833 137.417 41.8632 137.819 41.8632C138.219 41.8632 138.46 42.1033 138.46 42.5033V43.0634C138.781 42.4233 139.263 41.8632 139.825 41.8632C140.226 41.8632 140.467 42.1033 140.467 42.5033C140.467 42.8234 140.226 43.0634 139.986 43.0634C139.103 43.2234 138.46 43.8635 138.46 45.1437V46.7439C138.46 47.064 138.219 47.3841 137.819 47.3841C137.498 47.3841 137.176 47.144 137.176 46.7439V42.5033Z" fill="black"/>
<path d="M140.868 45.7838C140.868 44.5836 141.751 44.0235 143.115 44.0235C143.758 44.0235 144.159 44.1035 144.56 44.2636V44.1035C144.56 43.3034 144.079 42.9034 143.196 42.9034C142.714 42.9034 142.313 42.9834 141.992 43.1434C141.912 43.1434 141.831 43.1434 141.831 43.1434C141.51 43.1434 141.27 42.9034 141.27 42.6634C141.27 42.4233 141.43 42.2633 141.591 42.1833C142.072 42.0233 142.634 41.8632 143.356 41.8632C144.159 41.8632 144.801 42.1033 145.122 42.5033C145.523 42.9034 145.684 43.4635 145.684 44.1836V46.824C145.684 47.144 145.443 47.3841 145.042 47.3841C144.72 47.3841 144.4 47.144 144.4 46.824V46.5839C143.998 47.064 143.436 47.3841 142.634 47.3841C141.751 47.4641 140.868 46.824 140.868 45.7838ZM144.56 45.3838V44.9837C144.239 44.8237 143.838 44.7437 143.356 44.7437C142.554 44.7437 142.072 45.0637 142.072 45.6238C142.072 46.1838 142.554 46.4239 143.115 46.4239C143.918 46.5039 144.56 46.0238 144.56 45.3838Z" fill="black"/>
<path d="M147.61 48.5042C147.369 48.4241 147.289 48.2641 147.289 48.0241C147.289 47.7841 147.53 47.5441 147.851 47.5441C147.931 47.5441 148.011 47.5441 148.092 47.6241C148.573 47.8641 149.135 48.0241 149.777 48.0241C150.9 48.0241 151.462 47.464 151.462 46.3438V45.9438C150.98 46.5039 150.418 46.9039 149.536 46.9039C148.252 46.9039 147.048 45.9438 147.048 44.3436C147.048 42.7434 148.252 41.7832 149.536 41.7832C150.418 41.7832 150.98 42.1833 151.462 42.7434V42.5033C151.462 42.1833 151.703 41.8632 152.104 41.8632C152.425 41.8632 152.746 42.1032 152.746 42.5033V46.2638C152.746 47.144 152.505 47.8641 152.024 48.3441C151.542 48.8242 150.74 49.0642 149.777 49.0642C148.894 48.9842 148.252 48.8242 147.61 48.5042ZM151.382 44.3436C151.382 43.4634 150.659 42.8234 149.777 42.8234C148.894 42.8234 148.252 43.3834 148.252 44.3436C148.252 45.2237 148.974 45.8638 149.777 45.8638C150.659 45.8638 151.382 45.2237 151.382 44.3436Z" fill="black"/>
<path d="M156.679 47.4641C155.074 47.4641 153.869 46.3439 153.869 44.6637C153.869 43.1434 154.993 41.8632 156.518 41.8632C158.284 41.8632 159.086 43.3034 159.086 44.5036C159.086 44.8237 158.846 45.0637 158.524 45.0637H155.154C155.314 45.9438 155.876 46.4239 156.759 46.4239C157.321 46.4239 157.722 46.2638 158.043 45.9438C158.123 45.8638 158.203 45.8638 158.364 45.8638C158.605 45.8638 158.846 46.1038 158.846 46.3439C158.846 46.5039 158.765 46.6639 158.685 46.7439C158.123 47.144 157.481 47.4641 156.679 47.4641ZM157.882 44.2636C157.802 43.4635 157.321 42.8234 156.518 42.8234C155.715 42.8234 155.234 43.3835 155.074 44.2636H157.882Z" fill="black"/>
<path d="M164.273 43.6677C164.639 43.6677 164.932 43.9595 164.932 44.3244V44.3973C164.932 44.7621 164.639 45.054 164.273 45.054C163.907 45.054 163.614 44.7621 163.614 44.3973V44.3244C163.614 43.8866 163.907 43.6677 164.273 43.6677Z" fill="black"/>
<path d="M169.426 41.0632C169.426 40.7431 169.667 40.423 170.068 40.423C170.389 40.423 170.71 40.6631 170.71 41.0632V47.064C170.71 47.384 170.469 47.7041 170.068 47.7041C169.747 47.7041 169.426 47.4641 169.426 47.064V41.0632Z" fill="black"/>
<path d="M172.476 42.8234C172.476 42.5033 172.717 42.1833 173.117 42.1833C173.519 42.1833 173.76 42.4233 173.76 42.8234V43.0634C174.081 42.5833 174.643 42.1033 175.445 42.1033C176.649 42.1033 177.371 42.9034 177.371 44.1835V47.064C177.371 47.384 177.13 47.7041 176.729 47.7041C176.328 47.7041 176.087 47.464 176.087 47.064V44.5836C176.087 43.7035 175.686 43.2234 174.884 43.2234C174.161 43.2234 173.679 43.7035 173.679 44.5836V47.064C173.679 47.384 173.439 47.7041 173.037 47.7041C172.717 47.7041 172.396 47.464 172.396 47.064V42.8234H172.476Z" fill="black"/>
<path d="M179.137 43.3034H178.896C178.575 43.3034 178.334 43.0634 178.334 42.8234C178.334 42.5833 178.575 42.2633 178.896 42.2633H179.137V41.8632C179.137 41.3031 179.298 40.8231 179.618 40.503C179.939 40.183 180.341 40.103 180.823 40.103C181.063 40.103 181.304 40.103 181.464 40.183C181.705 40.183 181.866 40.423 181.866 40.663C181.866 40.9831 181.625 41.2231 181.304 41.1431C181.224 41.1431 181.144 41.1431 181.063 41.1431C180.582 41.1431 180.341 41.3831 180.341 41.9432V42.2633H181.304C181.625 42.2633 181.866 42.5033 181.866 42.7434C181.866 42.9834 181.625 43.2234 181.304 43.2234H180.341V46.984C180.341 47.304 180.1 47.6241 179.699 47.6241C179.378 47.6241 179.057 47.384 179.057 46.984V43.3034H179.137ZM182.749 40.743C182.749 40.343 183.07 40.103 183.471 40.103C183.872 40.103 184.193 40.343 184.193 40.743V40.8231C184.193 41.2231 183.872 41.4631 183.471 41.4631C183.07 41.4631 182.749 41.2231 182.749 40.743ZM182.829 42.8234C182.829 42.5033 183.07 42.1833 183.471 42.1833C183.872 42.1833 184.113 42.4233 184.113 42.8234V47.144C184.113 47.464 183.872 47.7841 183.471 47.7841C183.15 47.7841 182.829 47.5441 182.829 47.144V42.8234Z" fill="black"/>
<path d="M185.718 42.8234C185.718 42.5033 185.959 42.1833 186.36 42.1833C186.761 42.1833 187.002 42.4233 187.002 42.8234V43.0634C187.323 42.5833 187.885 42.1033 188.688 42.1033C189.891 42.1033 190.614 42.9034 190.614 44.1835V47.064C190.614 47.384 190.373 47.7041 189.972 47.7041C189.57 47.7041 189.329 47.464 189.329 47.064V44.5836C189.329 43.7035 188.928 43.2234 188.126 43.2234C187.403 43.2234 186.922 43.7035 186.922 44.5836V47.064C186.922 47.384 186.681 47.7041 186.28 47.7041C185.959 47.7041 185.638 47.464 185.638 47.064V42.8234H185.718Z" fill="black"/>
<path d="M192.058 40.743C192.058 40.343 192.379 40.103 192.781 40.103C193.182 40.103 193.503 40.343 193.503 40.743V40.8231C193.503 41.2231 193.182 41.4631 192.781 41.4631C192.379 41.4631 192.058 41.2231 192.058 40.743ZM192.139 42.8234C192.139 42.5033 192.379 42.1833 192.781 42.1833C193.182 42.1833 193.422 42.4233 193.422 42.8234V47.144C193.422 47.464 193.182 47.7841 192.781 47.7841C192.46 47.7841 192.139 47.5441 192.139 47.144V42.8234Z" fill="black"/>
<path d="M195.268 46.1839V43.3035H195.027C194.706 43.3035 194.465 43.0634 194.465 42.7434C194.465 42.4233 194.706 42.1833 195.027 42.1833H195.268V41.2232C195.268 40.9031 195.509 40.5831 195.91 40.5831C196.232 40.5831 196.552 40.8231 196.552 41.2232V42.1833H197.515C197.837 42.1833 198.077 42.4233 198.077 42.7434C198.077 43.0634 197.837 43.3035 197.515 43.3035H196.552V45.9438C196.552 46.4239 196.793 46.5839 197.194 46.5839C197.355 46.5839 197.435 46.5839 197.515 46.5839C197.756 46.5839 198.077 46.8239 198.077 47.064C198.077 47.304 197.917 47.4641 197.756 47.5441C197.515 47.6241 197.194 47.7041 196.873 47.7041C195.991 47.7041 195.268 47.304 195.268 46.1839Z" fill="black"/>
<path d="M201.609 47.7841C200.004 47.7841 198.799 46.6639 198.799 44.9837C198.799 43.4635 199.923 42.1833 201.448 42.1833C203.214 42.1833 204.016 43.6235 204.016 44.8236C204.016 45.1437 203.776 45.3838 203.454 45.3838H200.084C200.244 46.2638 200.806 46.7439 201.689 46.7439C202.251 46.7439 202.652 46.5839 202.973 46.2638C203.053 46.1838 203.133 46.1838 203.294 46.1838C203.535 46.1838 203.776 46.4239 203.776 46.6639C203.776 46.8239 203.695 46.984 203.615 47.064C203.053 47.464 202.491 47.7841 201.609 47.7841ZM202.893 44.5836C202.812 43.7835 202.331 43.1434 201.528 43.1434C200.726 43.1434 200.244 43.7035 200.084 44.5836H202.893Z" fill="black"/>
<path d="M35.1572 8.14301C26.5159 8.14301 19.295 21.3017 19.295 23.839C19.295 26.1403 26.1608 39.5939 35.1572 39.5939C43.7394 39.5939 48.948 32.395 48.948 23.839C48.948 15.2239 43.7394 8.14301 35.1572 8.14301Z" fill="url(#paint0_radial_827_102)"/>
<path d="M6.74739 31.2149C3.01856 31.2149 0 27.6745 0 23.78C0 19.8855 3.01856 16.4631 6.74739 16.4631C9.76591 16.4631 14.6785 21.2427 14.6785 23.78C14.6785 26.1993 9.8843 31.2149 6.74739 31.2149Z" fill="url(#paint1_radial_827_102)"/>
<path d="M35.1574 43.1934C27.1079 43.1934 20.5381 35.2864 17.5195 29.3267L17.4011 29.1497C17.1052 28.6776 16.9276 28.4416 16.7501 28.4416C16.6317 28.4416 16.5133 28.5596 16.3949 28.7366C14.1458 31.864 10.2395 34.7554 6.80656 34.8144C10.7721 42.4853 18.8216 47.678 28.0549 47.678C35.7493 47.678 42.615 44.0195 46.9949 38.4138C43.9171 41.4232 39.8332 43.1934 35.1574 43.1934Z" fill="url(#paint2_radial_827_102)"/>
<path d="M16.395 18.9414C16.5726 19.1774 16.691 19.2954 16.8093 19.2954C16.9869 19.2954 17.2829 18.8233 17.638 18.0562L17.6972 17.9972C20.7749 12.0965 27.2263 4.54357 35.1574 4.54357C39.8333 4.54357 43.9172 6.25478 46.9358 9.26417C42.5559 3.59945 35.6901 0 27.9958 0C18.7625 0 10.7722 5.25166 6.7475 12.9226C10.0028 12.9226 14.0275 15.696 16.395 18.9414Z" fill="url(#paint3_radial_827_102)"/>
<path d="M210.766 6.9039C210.766 4.36658 212.779 2.24231 215.383 2.24231C217.988 2.24231 220 4.30757 220 6.8449C220 9.32319 217.988 11.4475 215.383 11.4475C212.779 11.5065 210.766 9.44124 210.766 6.9039ZM219.5 7C219.5 4.5 217.692 2.67 215.324 2.67C213.016 2.67 211.24 4.66161 211.24 6.9039C211.24 9.14619 212.956 10.9754 215.324 10.9754C217.632 11.0344 219.5 9.24229 219.5 7Z" fill="black"/>
<path d="M215.224 6.72114C215.46 6.72114 215.632 6.6678 215.735 6.56596C215.838 6.46896 215.894 6.30407 215.894 6.07129C215.894 5.84336 215.838 5.68332 215.735 5.58147C215.632 5.48448 215.46 5.43598 215.224 5.43598H214.743V6.72114H215.224ZM214.743 7.60863V9.5H213.6V4.5H215.344C215.929 4.5 216.354 4.61154 216.625 4.83463C216.9 5.05286 217.033 5.40204 217.033 5.88215C217.033 6.21193 216.964 6.48351 216.822 6.6969C216.681 6.90543 216.47 7.06547 216.182 7.16246C216.341 7.20611 216.479 7.29825 216.603 7.43889C216.728 7.57953 216.852 7.79292 216.977 8.0839L217.6 9.5H216.384L215.843 8.25849C215.735 8.01115 215.624 7.83657 215.512 7.74927C215.4 7.65713 215.25 7.60863 215.065 7.60863H214.743Z" fill="black"/>
<defs>
<radialGradient id="paint0_radial_827_102" cx="0" cy="0" r="1" gradientUnits="userSpaceOnUse" gradientTransform="translate(33.8411 16.4436) scale(14.2194 14.1761)">
<stop offset="0.3454" stop-color="#EF6224"/>
<stop offset="1" stop-color="#D24D27"/>
</radialGradient>
<radialGradient id="paint1_radial_827_102" cx="0" cy="0" r="1" gradientUnits="userSpaceOnUse" gradientTransform="translate(4.47019 15.8353) scale(10.9546 10.9213)">
<stop offset="0.3454" stop-color="#EF6224"/>
<stop offset="1" stop-color="#D24D27"/>
</radialGradient>
<radialGradient id="paint2_radial_827_102" cx="0" cy="0" r="1" gradientUnits="userSpaceOnUse" gradientTransform="translate(26.5237 33.4821) scale(12.7875 12.7485)">
<stop offset="0.3454" stop-color="#EF6224"/>
<stop offset="1" stop-color="#D24D27"/>
</radialGradient>
<radialGradient id="paint3_radial_827_102" cx="0" cy="0" r="1" gradientUnits="userSpaceOnUse" gradientTransform="translate(26.505 5.10379) scale(12.7756 12.7368)">
<stop offset="0.3454" stop-color="#EF6224"/>
<stop offset="1" stop-color="#D24D27"/>
</radialGradient>
</defs>
</svg>
