<svg width="20" height="21" viewBox="0 0 20 21" fill="none" xmlns="http://www.w3.org/2000/svg">
<path d="M6.95983 17.5851C7.66073 18.4761 8.76182 19.0502 10 19.0502C11.2382 19.0502 12.3393 18.4761 13.0402 17.5851C11.022 17.8585 8.97798 17.8585 6.95983 17.5851Z" fill="#222222"/>
<path d="M15.6243 8.21688V8.80363C15.6243 9.50779 15.8252 10.1962 16.2018 10.7821L17.1247 12.2178C17.9676 13.5293 17.3241 15.3118 15.858 15.7265C12.0227 16.8114 7.97728 16.8114 4.14197 15.7265C2.67587 15.3118 2.03235 13.5293 2.8753 12.2178L3.79816 10.7821C4.17476 10.1962 4.37573 9.50779 4.37573 8.80363V8.21688C4.37573 4.99522 6.8938 2.38354 10 2.38354C13.1062 2.38354 15.6243 4.99522 15.6243 8.21688Z" fill="#222222"/>
</svg>
